<svg width="49" height="49" viewBox="0 0 49 49" fill="none" xmlns="http://www.w3.org/2000/svg">
<path fill-rule="evenodd" clip-rule="evenodd" d="M14.1384 18.5793V33.3814C14.1384 33.774 14.2944 34.1505 14.572 34.428C14.8495 34.7056 15.226 34.8616 15.6186 34.8616H33.3811C33.7737 34.8616 34.1502 34.7056 34.4278 34.428C34.7054 34.1505 34.8613 33.774 34.8613 33.3814V18.5793H14.1384ZM15.6186 14.1387C14.8335 14.1387 14.0805 14.4506 13.5253 15.0058C12.9701 15.5609 12.6582 16.3139 12.6582 17.0991V33.3814C12.6582 34.1665 12.9701 34.9195 13.5253 35.4747C14.0805 36.0299 14.8335 36.3418 15.6186 36.3418H33.3811C34.1663 36.3418 34.9193 36.0299 35.4744 35.4747C36.0296 34.9195 36.3415 34.1665 36.3415 33.3814V17.0991C36.3415 16.3139 36.0296 15.5609 35.4744 15.0058C34.9193 14.4506 34.1663 14.1387 33.3811 14.1387H15.6186Z" fill="#5661CB"/>
<path fill-rule="evenodd" clip-rule="evenodd" d="M17.8392 12.6582C18.0355 12.6582 18.2238 12.7362 18.3626 12.875C18.5014 13.0138 18.5793 13.202 18.5793 13.3983V14.1384C18.5793 14.3347 18.5014 14.5229 18.3626 14.6617C18.2238 14.8005 18.0355 14.8785 17.8392 14.8785C17.6429 14.8785 17.4547 14.8005 17.3159 14.6617C17.1771 14.5229 17.0991 14.3347 17.0991 14.1384V13.3983C17.0991 13.202 17.1771 13.0138 17.3159 12.875C17.4547 12.7362 17.6429 12.6582 17.8392 12.6582V12.6582ZM31.1611 12.6582C31.3574 12.6582 31.5456 12.7362 31.6844 12.875C31.8232 13.0138 31.9012 13.202 31.9012 13.3983V14.1384C31.9012 14.3347 31.8232 14.5229 31.6844 14.6617C31.5456 14.8005 31.3574 14.8785 31.1611 14.8785C30.9648 14.8785 30.7766 14.8005 30.6378 14.6617C30.499 14.5229 30.421 14.3347 30.421 14.1384V13.3983C30.421 13.202 30.499 13.0138 30.6378 12.875C30.7766 12.7362 30.9648 12.6582 31.1611 12.6582V12.6582Z" fill="#5661CB"/>
<path d="M27.2515 22.6084L23.7649 30.4258H22.6432L26.1182 22.886H21.5619V22.0071H27.2515V22.6084Z" fill="#5661CB"/>
<rect x="1" y="3" width="48" height="44" rx="8" fill="#9FA6EE" fill-opacity="0.1"/>
</svg>
