<svg width="50" height="49" viewBox="0 0 50 49" fill="none" xmlns="http://www.w3.org/2000/svg">
<path d="M31.4295 15.7852L19.8218 34.2155" stroke="#5661CB" stroke-width="1.63333" stroke-linecap="round" stroke-linejoin="round"/>
<path d="M19.552 21.1421C18.4187 20.1424 18.4187 18.5217 19.552 17.522V17.522C20.6853 16.5224 22.5227 16.5223 23.6559 17.522V17.522C24.7892 18.5217 24.7892 20.1424 23.6559 21.1421V21.1421C22.5227 22.1417 20.6853 22.1417 19.552 21.1421V21.1421Z" stroke="#5661CB" stroke-width="1.63333" stroke-linecap="round" stroke-linejoin="round"/>
<path d="M27.6775 32.478C26.5442 31.4783 26.5442 29.8576 27.6775 28.8579V28.8579C28.8107 27.8583 30.6481 27.8583 31.7814 28.8579V28.8579C32.9147 29.8576 32.9147 31.4783 31.7814 32.478V32.478C30.6481 33.4777 28.8107 33.4777 27.6775 32.478V32.478Z" stroke="#5661CB" stroke-width="1.63333" stroke-linecap="round" stroke-linejoin="round"/>
</svg>
