<svg width="49" height="49" viewBox="0 0 49 49" fill="none" xmlns="http://www.w3.org/2000/svg">
<path d="M29.0835 20.0586C29.0835 18.954 29.9789 18.0586 31.0835 18.0586H32.1149C33.3984 18.0586 34.6039 18.6745 35.3561 19.7145L38.8835 24.5919H29.0835V20.0586Z" stroke="#5661CB" stroke-width="1.63333" stroke-linecap="round" stroke-linejoin="round"/>
<path d="M29.0835 24.5918V23.7751C28.6325 23.7751 28.2668 24.1408 28.2668 24.5918H29.0835ZM38.8835 24.5918H39.7002C39.7002 24.1408 39.3345 23.7751 38.8835 23.7751V24.5918ZM29.0835 31.1251H28.2668C28.2668 31.5762 28.6325 31.9418 29.0835 31.9418V31.1251ZM31.0781 31.1251V31.9418C31.444 31.9418 31.7653 31.6984 31.8643 31.3461L31.0781 31.1251ZM31.1952 30.7868L30.4407 30.4743H30.4407L31.1952 30.7868ZM32.8286 29.1534L32.516 28.3989H32.516L32.8286 29.1534ZM35.1385 29.1534L35.451 28.3989H35.451L35.1385 29.1534ZM36.7718 30.7868L37.5263 30.4742V30.4742L36.7718 30.7868ZM36.889 31.1251L36.1028 31.3461C36.2018 31.6984 36.523 31.9418 36.889 31.9418V31.1251ZM38.8835 31.1251V31.9418C39.3345 31.9418 39.7002 31.5762 39.7002 31.1251H38.8835ZM29.0835 25.4085H38.8835V23.7751H29.0835V25.4085ZM29.9002 31.1251V24.5918H28.2668V31.1251H29.9002ZM31.0781 30.3085H29.0835V31.9418H31.0781V30.3085ZM31.8643 31.3461C31.8877 31.2627 31.9162 31.1803 31.9497 31.0993L30.4407 30.4743C30.3824 30.6152 30.3327 30.7587 30.2919 30.9041L31.8643 31.3461ZM31.9497 31.0993C32.1732 30.5599 32.6017 30.1314 33.1411 29.9079L32.516 28.3989C31.5764 28.7881 30.8299 29.5346 30.4407 30.4743L31.9497 31.0993ZM33.1411 29.9079C33.6805 29.6845 34.2865 29.6845 34.8259 29.9079L35.451 28.3989C34.5114 28.0097 33.4557 28.0097 32.516 28.3989L33.1411 29.9079ZM34.8259 29.9079C35.3653 30.1314 35.7939 30.5599 36.0173 31.0993L37.5263 30.4742C37.1371 29.5346 36.3906 28.7881 35.451 28.3989L34.8259 29.9079ZM36.0173 31.0993C36.0508 31.1803 36.0793 31.2627 36.1028 31.3461L37.6752 30.9041C37.6343 30.7587 37.5847 30.6152 37.5263 30.4742L36.0173 31.0993ZM38.8835 30.3085H36.889V31.9418H38.8835V30.3085ZM38.0668 24.5918V31.1251H39.7002V24.5918H38.0668Z" fill="#5661CB"/>
<path d="M32.8285 29.1532C33.568 28.8469 34.3989 28.8469 35.1384 29.1532V29.1532C35.8779 29.4595 36.4654 30.047 36.7717 30.7865V30.7865C37.078 31.526 37.078 32.3569 36.7717 33.0964V33.0964C36.4654 33.8359 35.8779 34.4234 35.1384 34.7297V34.7297C34.3989 35.0361 33.568 35.0361 32.8285 34.7297V34.7297C32.089 34.4234 31.5015 33.8359 31.1952 33.0964V33.0964C30.8889 32.3569 30.8889 31.526 31.1952 30.7865V30.7865C31.5015 30.047 32.089 29.4595 32.8285 29.1532V29.1532Z" stroke="#5661CB" stroke-width="1.63333" stroke-linecap="round" stroke-linejoin="round"/>
<path d="M11.1167 31.1253H10.3C10.3 31.5764 10.6657 31.942 11.1167 31.942V31.1253ZM13.5196 31.1253V31.942C13.8855 31.942 14.2068 31.6986 14.3058 31.3463L13.5196 31.1253ZM13.6368 30.7868L14.3913 31.0993H14.3913L13.6368 30.7868ZM15.2701 29.1534L15.5826 29.9079H15.5826L15.2701 29.1534ZM17.58 29.1534L17.2675 29.9079L17.2675 29.9079L17.58 29.1534ZM19.2133 30.7868L18.4588 31.0993L18.4588 31.0993L19.2133 30.7868ZM19.3306 31.1253L18.5443 31.3463C18.6433 31.6986 18.9646 31.942 19.3306 31.942L19.3306 31.1253ZM29.0834 31.1253V31.942C29.5344 31.942 29.9 31.5764 29.9 31.1253H29.0834ZM11.9334 18.792C11.9334 17.0339 13.3586 15.6087 15.1167 15.6087V13.9753C12.4565 13.9753 10.3 16.1318 10.3 18.792H11.9334ZM11.9334 31.1253L11.9334 18.792H10.3L10.3 31.1253H11.9334ZM13.5196 30.3087H11.1167L11.1167 31.942H13.5196V30.3087ZM14.3058 31.3463C14.3292 31.2628 14.3577 31.1803 14.3913 31.0993L12.8823 30.4742C12.8239 30.6152 12.7742 30.7589 12.7333 30.9044L14.3058 31.3463ZM14.3913 31.0993C14.6147 30.5599 15.0433 30.1314 15.5826 29.9079L14.9576 28.3989C14.018 28.7881 13.2715 29.5346 12.8823 30.4742L14.3913 31.0993ZM15.5826 29.9079C16.122 29.6845 16.7281 29.6845 17.2675 29.9079L17.8925 28.3989C16.9529 28.0097 15.8972 28.0097 14.9576 28.3989L15.5826 29.9079ZM17.2675 29.9079C17.8069 30.1314 18.2354 30.5599 18.4588 31.0993L19.9678 30.4742C19.5786 29.5346 18.8321 28.7881 17.8925 28.3989L17.2675 29.9079ZM18.4588 31.0993C18.4924 31.1803 18.5209 31.2628 18.5443 31.3463L20.1168 30.9044C20.0759 30.7589 20.0262 30.6152 19.9678 30.4742L18.4588 31.0993ZM29.0834 30.3087L19.3306 30.3087L19.3306 31.942L29.0834 31.942V30.3087ZM28.2667 18.792L28.2667 31.1253H29.9L29.9 18.792H28.2667ZM25.0834 15.6087C26.8415 15.6087 28.2667 17.0339 28.2667 18.792H29.9C29.9 16.1318 27.7435 13.9753 25.0834 13.9753V15.6087ZM15.1167 15.6087L25.0834 15.6087V13.9753L15.1167 13.9753V15.6087Z" fill="#5661CB"/>
<path d="M15.2699 29.1532C16.0094 28.8469 16.8403 28.8469 17.5798 29.1532V29.1532C18.3193 29.4595 18.9068 30.047 19.2131 30.7865V30.7865C19.5195 31.526 19.5195 32.3569 19.2131 33.0964V33.0964C18.9068 33.8359 18.3193 34.4234 17.5798 34.7297V34.7297C16.8403 35.0361 16.0094 35.0361 15.2699 34.7297V34.7297C14.5304 34.4234 13.9429 33.8359 13.6366 33.0964V33.0964C13.3303 32.3569 13.3303 31.526 13.6366 30.7865V30.7865C13.9429 30.047 14.5304 29.4595 15.2699 29.1532V29.1532Z" stroke="#5661CB" stroke-width="1.63333" stroke-linecap="round" stroke-linejoin="round"/>
</svg>
